<svg width="70" height="70" viewBox="0 0 70 70" fill="none" xmlns="http://www.w3.org/2000/svg">
<path d="M46.6667 23.3333C51.308 23.3333 55.7592 25.177 59.041 28.4589C62.3229 31.7408 64.1667 36.192 64.1667 40.8333V61.2499H52.5V40.8333C52.5 39.2862 51.8854 37.8024 50.7915 36.7085C49.6975 35.6145 48.2138 34.9999 46.6667 34.9999C45.1196 34.9999 43.6358 35.6145 42.5419 36.7085C41.4479 37.8024 40.8333 39.2862 40.8333 40.8333V61.2499H29.1667V40.8333C29.1667 36.192 31.0104 31.7408 34.2923 28.4589C37.5742 25.177 42.0254 23.3333 46.6667 23.3333Z" stroke="black" stroke-width="3.5" stroke-linecap="round" stroke-linejoin="round"/>
<path d="M17.5 26.25H5.83333V61.25H17.5V26.25Z" stroke="black" stroke-width="3.5" stroke-linecap="round" stroke-linejoin="round"/>
<path d="M11.6667 17.4999C14.8883 17.4999 17.5 14.8882 17.5 11.6666C17.5 8.44492 14.8883 5.83325 11.6667 5.83325C8.445 5.83325 5.83333 8.44492 5.83333 11.6666C5.83333 14.8882 8.445 17.4999 11.6667 17.4999Z" stroke="black" stroke-width="3.5" stroke-linecap="round" stroke-linejoin="round"/>
</svg>
