<svg width="70" height="70" viewBox="0 0 70 70" fill="none" xmlns="http://www.w3.org/2000/svg">
<path d="M43.75 64.1666V52.4999C44.1558 48.8462 43.1081 45.1794 40.8333 42.2916C49.5833 42.2916 58.3333 36.4583 58.3333 26.2499C58.5667 22.6041 57.5458 19.0166 55.4167 16.0416C56.2333 12.6874 56.2333 9.18742 55.4167 5.83325C55.4167 5.83325 52.5 5.83325 46.6667 10.2083C38.9667 8.74992 31.0333 8.74992 23.3333 10.2083C17.5 5.83325 14.5833 5.83325 14.5833 5.83325C13.7083 9.18742 13.7083 12.6874 14.5833 16.0416C12.4596 19.0046 11.4289 22.6122 11.6667 26.2499C11.6667 36.4583 20.4167 42.2916 29.1667 42.2916C28.0292 43.7207 27.1833 45.3541 26.6875 47.1041C26.1917 48.8541 26.0458 50.6916 26.25 52.4999V64.1666" stroke="black" stroke-width="3.5" stroke-linecap="round" stroke-linejoin="round"/>
<path d="M26.25 52.5001C13.0958 58.3334 11.6667 46.6667 5.83333 46.6667" stroke="black" stroke-width="3.5" stroke-linecap="round" stroke-linejoin="round"/>
</svg>
