<svg width="120" height="120" viewBox="0 0 120 120" fill="none" xmlns="http://www.w3.org/2000/svg">
<path d="M57.2022 39.9137C62.986 35.2997 85.1593 62.8411 78.5445 67.4429C64.4506 77.2478 82.0018 122.83 52.7727 119.861C41.041 119.861 -4.12485 77.2478 0.30452 52.7355C4.73389 28.2232 43.9137 50.5147 57.2022 39.9137Z" fill="#D9D9D9"/>
<path d="M77.9597 96.0925C76.199 90.3344 81.32 81.8463 90.2335 79.8666C99.147 77.8869 110.455 77.9246 112.216 83.6826C113.977 89.4407 107.555 105.385 98.642 107.365C89.7285 109.344 79.7204 101.851 77.9597 96.0925Z" fill="#D9D9D9"/>
<path d="M104.011 34.7727C111.7 34.7727 120 36.7318 120 45.4793C120 54.2267 106.74 71.7297 99.0516 71.7297C91.3632 71.7297 86.1746 62.9551 86.1746 54.2076C86.1746 45.4602 96.3226 34.7727 104.011 34.7727Z" fill="#D9D9D9"/>
<path d="M83.7584 0.0783997C90.3769 0.0783997 92.6177 12.4959 92.6177 19.9139C92.6177 27.3318 79.0136 34.7728 72.3951 34.7728C65.7767 34.7728 58.7922 27.3318 58.7922 19.9139C58.7922 12.4959 77.14 0.0783997 83.7584 0.0783997Z" fill="#D9D9D9"/>
<path d="M39.147 36.4193C32.3149 37.3007 21.2442 28.7924 20.0702 20.811C18.8961 12.8297 36.6579 1.71405 43.49 0.832654C50.3221 -0.0487391 51.2143 8.66039 52.3884 16.6417C53.5624 24.6231 45.9791 35.5379 39.147 36.4193Z" fill="#D9D9D9"/>
</svg>
