<svg width="60" height="60" viewBox="0 0 60 60" fill="none" xmlns="http://www.w3.org/2000/svg">
<path d="M37.5 55V45C37.8478 41.8682 36.9498 38.7253 35 36.25C42.5 36.25 50 31.25 50 22.5C50.2 19.375 49.325 16.3 47.5 13.75C48.2 10.875 48.2 7.875 47.5 5C47.5 5 45 5 40 8.75C33.4 7.5 26.6 7.5 20 8.75C15 5 12.5 5 12.5 5C11.75 7.875 11.75 10.875 12.5 13.75C10.6797 16.2897 9.79618 19.382 10 22.5C10 31.25 17.5 36.25 25 36.25C24.025 37.475 23.3 38.875 22.875 40.375C22.45 41.875 22.325 43.45 22.5 45V55" stroke="black" stroke-width="3.33333" stroke-linecap="round" stroke-linejoin="round"/>
<path d="M22.5 45C11.225 50 10 40 5 40" stroke="black" stroke-width="3.33333" stroke-linecap="round" stroke-linejoin="round"/>
</svg>
