<svg width="35" height="35" viewBox="0 0 35 35" fill="none" xmlns="http://www.w3.org/2000/svg">
<path d="M21.875 32.0833V26.25C22.0779 24.4231 21.5541 22.5897 20.4167 21.1458C24.7917 21.1458 29.1667 18.2291 29.1667 13.125C29.2834 11.302 28.7729 9.50829 27.7083 8.02079C28.1167 6.34371 28.1167 4.59371 27.7083 2.91663C27.7083 2.91663 26.25 2.91663 23.3333 5.10413C19.4833 4.37496 15.5167 4.37496 11.6667 5.10413C8.75001 2.91663 7.29168 2.91663 7.29168 2.91663C6.85418 4.59371 6.85418 6.34371 7.29168 8.02079C6.22983 9.50229 5.71445 11.3061 5.83335 13.125C5.83335 18.2291 10.2083 21.1458 14.5833 21.1458C14.0146 21.8604 13.5917 22.677 13.3438 23.552C13.0958 24.427 13.0229 25.3458 13.125 26.25V32.0833" stroke="black" stroke-width="1.33333" stroke-linecap="round" stroke-linejoin="round"/>
<path d="M13.125 26.25C6.54791 29.1667 5.83332 23.3334 2.91666 23.3334" stroke="black" stroke-width="1.33333" stroke-linecap="round" stroke-linejoin="round"/>
</svg>
