<svg width="766" height="252" viewBox="0 0 766 252" fill="none" xmlns="http://www.w3.org/2000/svg">
    <path
        d="M89 22.2L85 31.4L82 42.6L66.4 74L64 76.6L61.2 85.4L58.8 86.4H43.8H34L31.8 84.8L31.2 81.6L16.6 59L13.4 50.8L0.200001 21L0.8 18.4L10.8 17.2L12.8 18.4L26.6 39L28.8 42.4L43.2 60.6L46 58.8L47.4 56L49.6 54.8L52 47.8L56 41.6L61.2 37.4L72.6 16.4H85.6L89 16.8V22.2ZM206.309 95.8L200.709 96.4C199.909 96.2667 199.043 96.3333 198.109 96.6C197.309 96.7333 196.309 96.8 195.109 96.8C193.776 96.8 192.643 96.8 191.709 96.8C190.776 96.6667 189.909 96.5333 189.109 96.4L182.909 95.8C182.376 92.6 181.909 89.6667 181.509 87C181.109 84.2 180.909 81 180.909 77.4C180.909 76.2 181.043 75.5333 181.309 75.4C181.576 75.2667 181.709 74.9333 181.709 74.4C181.709 73.8667 181.576 72.8 181.309 71.2C181.176 69.6 180.976 67.9333 180.709 66.2C177.909 66.3333 175.043 66.4667 172.109 66.6C169.309 66.6 166.509 66.6 163.709 66.6C161.976 66.6 160.043 66.6 157.909 66.6C155.909 66.6 153.976 66.6667 152.109 66.8C150.243 66.8 148.509 66.9333 146.909 67.2C145.443 67.4667 144.309 68 143.509 68.8C142.309 71.7333 141.243 74.4 140.309 76.8C139.376 79.2 138.443 81.5333 137.509 83.8C136.709 85.9333 135.843 88.1333 134.909 90.4C133.976 92.6667 132.976 95.2 131.909 98H110.709C110.443 97.0667 110.243 96.2667 110.109 95.6C109.976 94.8 109.843 93.8 109.709 92.6C110.243 90.8667 110.709 89.2667 111.109 87.8C111.643 86.3333 112.176 84.8667 112.709 83.4L115.709 74C117.043 71.3333 118.109 69.1333 118.909 67.4C119.843 65.5333 121.043 63.2667 122.509 60.6C123.176 59.1333 124.243 57.4 125.709 55.4C127.309 53.4 128.976 50.1333 130.709 45.6C132.576 40.5333 134.509 36.0667 136.509 32.2C138.643 28.3333 140.843 24.7333 143.109 21.4C145.376 18.0667 147.776 14.7333 150.309 11.4C152.843 7.93333 155.509 4.2 158.309 0.199996H159.709C160.243 0.199996 160.776 0.199996 161.309 0.199996C162.109 0.333327 162.843 0.399993 163.509 0.399993C164.309 0.399993 165.376 0.399993 166.709 0.399993C168.576 0.533329 170.176 0.666662 171.509 0.799994C172.976 0.799994 174.376 0.866662 175.709 0.999997C177.043 0.999997 178.376 1.06666 179.709 1.19999C181.043 1.19999 182.576 1.19999 184.309 1.19999C184.443 1.46666 184.909 2.26666 185.709 3.59999C186.643 4.79999 187.309 5.66666 187.709 6.2C189.309 9 190.376 12 190.909 15.2C191.443 18.4 191.909 21.2 192.309 23.6C192.443 24.6667 192.576 26.0667 192.709 27.8C192.976 29.4 193.243 31 193.509 32.6C193.776 34.2 194.109 35.7333 194.509 37.2C194.909 38.6667 195.443 39.8 196.109 40.6C197.176 46.0667 198.109 51.0667 198.909 55.6C199.709 60.1333 200.443 64.4667 201.109 68.6C201.909 72.7333 202.709 77 203.509 81.4C204.309 85.6667 205.243 90.4667 206.309 95.8ZM178.909 54C178.643 52.5333 178.443 51.2667 178.309 50.2C178.309 49 178.243 47.8 178.109 46.6L177.709 39.4C177.443 37.2667 176.843 35.0667 175.909 32.8C174.976 30.5333 174.309 27.8 173.909 24.6C173.509 24.4667 173.309 24.2667 173.309 24V23.8H172.709C172.576 23.8 172.309 23.8 171.909 23.8C171.509 23.6667 171.043 23.6 170.509 23.6C169.843 24.8 169.043 25.8 168.109 26.6C167.309 27.4 166.509 28.1333 165.709 28.8C163.176 31.0667 160.976 34.0667 159.109 37.8C157.243 41.4 155.643 45 154.309 48.6L151.509 54.6V54.8C151.509 54.9333 151.509 55.0667 151.509 55.2C151.643 55.2 151.709 55.2667 151.709 55.4C154.509 55.4 157.576 55.2667 160.909 55C161.843 55 163.043 55.0667 164.509 55.2C166.109 55.2 167.709 55.2 169.309 55.2H177.909L178.909 54ZM294.525 77.4L289.525 70.4C288.592 69.0667 287.325 67.6667 285.725 66.2C284.125 64.7333 282.592 63.4 281.125 62.2C280.458 61.8 279.792 61.2 279.125 60.4C278.592 59.4667 277.992 58.5333 277.325 57.6C276.658 56.6667 275.925 55.8 275.125 55C274.458 54.0667 273.725 53.4667 272.925 53.2C272.658 53.2 272.325 53.2 271.925 53.2C271.258 53.2 270.792 52.9333 270.525 52.4C270.392 51.8667 270.192 51.2 269.925 50.4C269.792 49.4667 269.525 48.5333 269.125 47.6C268.725 46.5333 267.992 45.4667 266.925 44.4L264.125 39.4H261.725C261.458 41.1333 261.325 42.7333 261.325 44.2C261.325 45.5333 261.325 46.8667 261.325 48.2V53C261.325 55 261.258 57.0667 261.125 59.2C261.125 61.3333 260.925 63.7333 260.525 66.4C260.525 67.0667 260.258 68.6667 259.725 71.2C259.325 73.6 258.792 76.2667 258.125 79.2C257.458 82 256.858 84.8667 256.325 87.8C255.792 90.6 255.525 92.7333 255.525 94.2L254.325 95.2H250.925L239.925 92.6C239.125 92.3333 238.592 91 238.325 88.6C238.058 86.0667 237.925 83.2 237.925 80C237.925 76.9333 237.992 73.9333 238.125 71C238.258 67.9333 238.325 65.8 238.325 64.6L239.725 44.4L237.525 41.8V12.2L241.525 8.19999L255.125 10.6L267.125 8.59999L279.325 30.2L279.725 31.8L286.725 42L297.725 53.4L298.125 54.6H302.925V8.59999L303.125 7.19999H325.325L327.325 15.6L328.525 23.2C327.192 25.2 326.458 26.6667 326.325 27.6C326.192 28.4 326.125 28.9333 326.125 29.2L323.925 33.2C324.458 37.0667 324.858 40.2667 325.125 42.8C325.392 45.2 325.525 47.5333 325.525 49.8C325.525 53.2667 325.125 58.8667 324.325 66.6C323.658 74.2 323.325 82.9333 323.325 92.8L321.925 94.2H318.725L307.325 91.4C305.992 90.8667 305.325 90.6667 305.325 90.8V90C305.325 89.8667 305.325 89.6 305.325 89.2C305.325 88.6667 305.325 88.1333 305.325 87.6C304.792 87.3333 303.858 86.1333 302.525 84C301.325 81.8667 299.458 79.9333 296.925 78.2H296.325C296.192 77.9333 296.058 77.8 295.925 77.8C295.925 77.8 295.858 77.7333 295.725 77.6C295.592 77.6 295.525 77.5333 295.525 77.4H294.525ZM441.32 86.4C441.454 87.2 441.587 87.9333 441.72 88.6C441.854 89.1333 441.987 89.6 442.12 90V91.4C442.12 91.5333 441.854 91.9333 441.32 92.6C440.92 93.1333 440.454 93.9333 439.92 95L431.32 95.6L413.12 99.2L405.32 101.6H365.52V89L364.32 86.2L366.12 78V45L365.12 42.2V5.79999L367.92 2.59999L369.12 3H386.92L389.72 5.2L409.92 2.4L425.92 -1.90735e-06L433.92 2.59999V12.4L430.32 14.4L387.52 17.6L386.12 18.8L389.12 39.2L390.92 44.6H396.12L412.12 42.8L416.12 43.2H429.32L430.52 49L428.12 52L420.32 53.4H414.12L392.12 57.8V64.6L394.52 85L396.52 85.2H437.52L441.32 86.4ZM543.514 71.4C543.514 73.8 543.647 76 543.914 78C544.181 79.8667 544.314 81.6 544.314 83.2C544.314 85.8667 543.647 88.1333 542.314 90C541.114 91.7333 539.514 93.2667 537.514 94.6C535.647 95.9333 533.647 97.0667 531.514 98C529.381 99.0667 527.447 100.067 525.714 101C524.381 101.667 523.314 102.2 522.514 102.6C521.714 103.133 521.114 103.467 520.714 103.6C520.314 103.733 519.981 103.8 519.714 103.8C519.581 103.933 519.447 104 519.314 104C519.181 104 518.781 104.067 518.114 104.2C517.447 104.467 516.581 104.733 515.514 105C514.581 105.4 513.581 105.667 512.514 105.8C511.447 105.933 510.381 106 509.314 106C507.181 106 504.981 105.667 502.714 105C500.447 104.467 497.847 104.2 494.914 104.2C493.714 104.067 492.514 104.133 491.314 104.4C490.247 104.667 489.047 104.933 487.714 105.2C485.981 105.6 484.447 105.867 483.114 106C481.914 106.133 480.714 106.267 479.514 106.4C478.447 106.667 477.314 106.8 476.114 106.8C475.047 106.933 473.714 107.067 472.114 107.2C472.114 107.2 471.847 107.067 471.314 106.8C470.781 106.533 470.247 106.267 469.714 106C469.181 105.733 468.714 105.4 468.314 105C467.914 104.6 467.714 104.267 467.714 104C467.714 103.867 467.781 103.733 467.914 103.6C467.781 103.6 467.714 103.4 467.714 103C467.714 102.733 467.781 102.4 467.914 102C468.181 101.6 468.447 101.333 468.714 101.2H468.314C468.047 101.2 467.781 100.8 467.514 100C467.381 99.3333 467.181 98.4667 466.914 97.4C466.781 96.3333 466.581 95.2 466.314 94C466.181 92.8 465.981 91.6667 465.714 90.6C465.847 90.4667 466.514 90.6 467.714 91C469.047 91.4 470.181 91.6 471.114 91.6C472.047 91.6 472.714 91.4 473.114 91C475.381 91.2667 477.381 91.5333 479.114 91.8C480.847 91.9333 482.381 92 483.714 92C486.514 92 489.047 91.6667 491.314 91C493.714 90.3333 496.914 89.5333 500.914 88.6C501.047 88.6 501.781 88.5333 503.114 88.4C504.447 88.2667 505.914 87.9333 507.514 87.4C509.114 86.7333 510.581 85.8 511.914 84.6C513.247 83.2667 513.914 81.4 513.914 79C513.914 78.0667 513.647 77.2 513.114 76.4C512.581 75.6 512.047 74.8667 511.514 74.2C510.981 73.4 510.447 72.7333 509.914 72.2C509.514 71.5333 509.314 70.8 509.314 70L503.714 67.6L490.914 61.8C489.314 61.5333 487.847 61 486.514 60.2C485.314 59.2667 484.181 58.2667 483.114 57.2C482.047 56 480.847 54.9333 479.514 54C478.314 53.0667 476.781 52.2667 474.914 51.6L472.514 49.6C471.181 48.5333 470.114 47.2 469.314 45.6C468.647 44 468.181 42.0667 467.914 39.8C468.181 39.5333 468.381 39 468.514 38.2C468.781 37.2667 468.914 36.4 468.914 35.6C468.914 34.8 468.847 34.3333 468.714 34.2C468.581 34.0667 468.514 33.8 468.514 33.4C468.514 32.0667 468.914 30.8 469.714 29.6C470.647 28.2667 471.114 26.7333 471.114 25C472.314 24.0667 473.181 23.2 473.714 22.4C474.381 21.6 474.981 20.8667 475.514 20.2C476.847 18.0667 479.047 16.2 482.114 14.6C485.181 13 487.914 11.6 490.314 10.4L500.514 5.2C502.914 4.53333 504.981 4 506.714 3.59999C508.447 3.19999 510.714 2.53333 513.514 1.6C514.314 1.86666 514.914 2.06666 515.314 2.19999C515.847 2.19999 516.581 2.19999 517.514 2.19999C519.647 2.19999 521.447 2.13333 522.914 2C524.381 1.86666 526.181 1.66666 528.314 1.4C529.647 2.2 530.581 2.73333 531.114 3C531.781 3.26666 532.847 3.73333 534.314 4.4C534.314 5.6 534.314 6.53333 534.314 7.19999C534.314 7.73333 534.314 8.26666 534.314 8.8C534.447 9.2 534.514 9.66666 534.514 10.2C534.514 10.7333 534.581 11.5333 534.714 12.6C533.781 13.9333 532.381 14.6 530.514 14.6C528.781 14.6 527.514 14.6 526.714 14.6L522.914 16.4C521.314 16.8 519.381 17.3333 517.114 18C514.981 18.6667 513.247 19.2667 511.914 19.8C510.981 20.3333 509.647 21 507.914 21.8C506.181 22.4667 504.647 22.8 503.314 22.8H502.314C499.247 24.6667 497.314 26.3333 496.514 27.8C495.847 29.1333 495.514 31.2 495.514 34C495.514 36.9333 495.847 38.8667 496.514 39.8C497.181 40.6 497.781 41 498.314 41L507.514 46.2C510.047 47.6667 512.914 49.3333 516.114 51.2C519.447 52.9333 522.714 54.4667 525.914 55.8C526.047 56.2 526.447 56.5333 527.114 56.8L533.314 60.2C534.114 60.7333 534.914 61.2667 535.714 61.8C536.514 62.2 537.647 62.6667 539.114 63.2C539.114 64 539.314 64.7333 539.714 65.4C540.114 65.9333 540.581 66.5333 541.114 67.2C541.647 67.8667 542.114 68.5333 542.514 69.2C543.047 69.8667 543.381 70.6 543.514 71.4ZM648.397 71.4C648.397 73.8 648.53 76 648.797 78C649.064 79.8667 649.197 81.6 649.197 83.2C649.197 85.8667 648.53 88.1333 647.197 90C645.997 91.7333 644.397 93.2667 642.397 94.6C640.53 95.9333 638.53 97.0667 636.397 98C634.264 99.0667 632.33 100.067 630.597 101C629.264 101.667 628.197 102.2 627.397 102.6C626.597 103.133 625.997 103.467 625.597 103.6C625.197 103.733 624.864 103.8 624.597 103.8C624.464 103.933 624.33 104 624.197 104C624.064 104 623.664 104.067 622.997 104.2C622.33 104.467 621.464 104.733 620.397 105C619.464 105.4 618.464 105.667 617.397 105.8C616.33 105.933 615.264 106 614.197 106C612.064 106 609.864 105.667 607.597 105C605.33 104.467 602.73 104.2 599.797 104.2C598.597 104.067 597.397 104.133 596.197 104.4C595.13 104.667 593.93 104.933 592.597 105.2C590.864 105.6 589.33 105.867 587.997 106C586.797 106.133 585.597 106.267 584.397 106.4C583.33 106.667 582.197 106.8 580.997 106.8C579.93 106.933 578.597 107.067 576.997 107.2C576.997 107.2 576.73 107.067 576.197 106.8C575.664 106.533 575.13 106.267 574.597 106C574.064 105.733 573.597 105.4 573.197 105C572.797 104.6 572.597 104.267 572.597 104C572.597 103.867 572.664 103.733 572.797 103.6C572.664 103.6 572.597 103.4 572.597 103C572.597 102.733 572.664 102.4 572.797 102C573.064 101.6 573.33 101.333 573.597 101.2H573.197C572.93 101.2 572.664 100.8 572.397 100C572.264 99.3333 572.064 98.4667 571.797 97.4C571.664 96.3333 571.464 95.2 571.197 94C571.064 92.8 570.864 91.6667 570.597 90.6C570.73 90.4667 571.397 90.6 572.597 91C573.93 91.4 575.064 91.6 575.997 91.6C576.93 91.6 577.597 91.4 577.997 91C580.264 91.2667 582.264 91.5333 583.997 91.8C585.73 91.9333 587.264 92 588.597 92C591.397 92 593.93 91.6667 596.197 91C598.597 90.3333 601.797 89.5333 605.797 88.6C605.93 88.6 606.664 88.5333 607.997 88.4C609.33 88.2667 610.797 87.9333 612.397 87.4C613.997 86.7333 615.464 85.8 616.797 84.6C618.13 83.2667 618.797 81.4 618.797 79C618.797 78.0667 618.53 77.2 617.997 76.4C617.464 75.6 616.93 74.8667 616.397 74.2C615.864 73.4 615.33 72.7333 614.797 72.2C614.397 71.5333 614.197 70.8 614.197 70L608.597 67.6L595.797 61.8C594.197 61.5333 592.73 61 591.397 60.2C590.197 59.2667 589.064 58.2667 587.997 57.2C586.93 56 585.73 54.9333 584.397 54C583.197 53.0667 581.664 52.2667 579.797 51.6L577.397 49.6C576.064 48.5333 574.997 47.2 574.197 45.6C573.53 44 573.064 42.0667 572.797 39.8C573.064 39.5333 573.264 39 573.397 38.2C573.664 37.2667 573.797 36.4 573.797 35.6C573.797 34.8 573.73 34.3333 573.597 34.2C573.464 34.0667 573.397 33.8 573.397 33.4C573.397 32.0667 573.797 30.8 574.597 29.6C575.53 28.2667 575.997 26.7333 575.997 25C577.197 24.0667 578.064 23.2 578.597 22.4C579.264 21.6 579.864 20.8667 580.397 20.2C581.73 18.0667 583.93 16.2 586.997 14.6C590.064 13 592.797 11.6 595.197 10.4L605.397 5.2C607.797 4.53333 609.864 4 611.597 3.59999C613.33 3.19999 615.597 2.53333 618.397 1.6C619.197 1.86666 619.797 2.06666 620.197 2.19999C620.73 2.19999 621.464 2.19999 622.397 2.19999C624.53 2.19999 626.33 2.13333 627.797 2C629.264 1.86666 631.064 1.66666 633.197 1.4C634.53 2.2 635.464 2.73333 635.997 3C636.664 3.26666 637.73 3.73333 639.197 4.4C639.197 5.6 639.197 6.53333 639.197 7.19999C639.197 7.73333 639.197 8.26666 639.197 8.8C639.33 9.2 639.397 9.66666 639.397 10.2C639.397 10.7333 639.464 11.5333 639.597 12.6C638.664 13.9333 637.264 14.6 635.397 14.6C633.664 14.6 632.397 14.6 631.597 14.6L627.797 16.4C626.197 16.8 624.264 17.3333 621.997 18C619.864 18.6667 618.13 19.2667 616.797 19.8C615.864 20.3333 614.53 21 612.797 21.8C611.064 22.4667 609.53 22.8 608.197 22.8H607.197C604.13 24.6667 602.197 26.3333 601.397 27.8C600.73 29.1333 600.397 31.2 600.397 34C600.397 36.9333 600.73 38.8667 601.397 39.8C602.064 40.6 602.664 41 603.197 41L612.397 46.2C614.93 47.6667 617.797 49.3333 620.997 51.2C624.33 52.9333 627.597 54.4667 630.797 55.8C630.93 56.2 631.33 56.5333 631.997 56.8L638.197 60.2C638.997 60.7333 639.797 61.2667 640.597 61.8C641.397 62.2 642.53 62.6667 643.997 63.2C643.997 64 644.197 64.7333 644.597 65.4C644.997 65.9333 645.464 66.5333 645.997 67.2C646.53 67.8667 646.997 68.5333 647.397 69.2C647.93 69.8667 648.264 70.6 648.397 71.4ZM765.88 95.8L760.28 96.4C759.48 96.2667 758.613 96.3333 757.68 96.6C756.88 96.7333 755.88 96.8 754.68 96.8C753.346 96.8 752.213 96.8 751.28 96.8C750.346 96.6667 749.48 96.5333 748.68 96.4L742.48 95.8C741.946 92.6 741.48 89.6667 741.08 87C740.68 84.2 740.48 81 740.48 77.4C740.48 76.2 740.613 75.5333 740.88 75.4C741.146 75.2667 741.28 74.9333 741.28 74.4C741.28 73.8667 741.146 72.8 740.88 71.2C740.746 69.6 740.546 67.9333 740.28 66.2C737.48 66.3333 734.613 66.4667 731.68 66.6C728.88 66.6 726.08 66.6 723.28 66.6C721.546 66.6 719.613 66.6 717.48 66.6C715.48 66.6 713.546 66.6667 711.68 66.8C709.813 66.8 708.08 66.9333 706.48 67.2C705.013 67.4667 703.88 68 703.08 68.8C701.88 71.7333 700.813 74.4 699.88 76.8C698.946 79.2 698.013 81.5333 697.08 83.8C696.28 85.9333 695.413 88.1333 694.48 90.4C693.546 92.6667 692.546 95.2 691.48 98H670.28C670.013 97.0667 669.813 96.2667 669.68 95.6C669.546 94.8 669.413 93.8 669.28 92.6C669.813 90.8667 670.28 89.2667 670.68 87.8C671.213 86.3333 671.746 84.8667 672.28 83.4L675.28 74C676.613 71.3333 677.68 69.1333 678.48 67.4C679.413 65.5333 680.613 63.2667 682.08 60.6C682.746 59.1333 683.813 57.4 685.28 55.4C686.88 53.4 688.546 50.1333 690.28 45.6C692.146 40.5333 694.08 36.0667 696.08 32.2C698.213 28.3333 700.413 24.7333 702.68 21.4C704.946 18.0667 707.346 14.7333 709.88 11.4C712.413 7.93333 715.08 4.2 717.88 0.199996H719.28C719.813 0.199996 720.346 0.199996 720.88 0.199996C721.68 0.333327 722.413 0.399993 723.08 0.399993C723.88 0.399993 724.946 0.399993 726.28 0.399993C728.146 0.533329 729.746 0.666662 731.08 0.799994C732.546 0.799994 733.946 0.866662 735.28 0.999997C736.613 0.999997 737.946 1.06666 739.28 1.19999C740.613 1.19999 742.146 1.19999 743.88 1.19999C744.013 1.46666 744.48 2.26666 745.28 3.59999C746.213 4.79999 746.88 5.66666 747.28 6.2C748.88 9 749.946 12 750.48 15.2C751.013 18.4 751.48 21.2 751.88 23.6C752.013 24.6667 752.146 26.0667 752.28 27.8C752.546 29.4 752.813 31 753.08 32.6C753.346 34.2 753.68 35.7333 754.08 37.2C754.48 38.6667 755.013 39.8 755.68 40.6C756.746 46.0667 757.68 51.0667 758.48 55.6C759.28 60.1333 760.013 64.4667 760.68 68.6C761.48 72.7333 762.28 77 763.08 81.4C763.88 85.6667 764.813 90.4667 765.88 95.8ZM738.48 54C738.213 52.5333 738.013 51.2667 737.88 50.2C737.88 49 737.813 47.8 737.68 46.6L737.28 39.4C737.013 37.2667 736.413 35.0667 735.48 32.8C734.546 30.5333 733.88 27.8 733.48 24.6C733.08 24.4667 732.88 24.2667 732.88 24V23.8H732.28C732.146 23.8 731.88 23.8 731.48 23.8C731.08 23.6667 730.613 23.6 730.08 23.6C729.413 24.8 728.613 25.8 727.68 26.6C726.88 27.4 726.08 28.1333 725.28 28.8C722.746 31.0667 720.546 34.0667 718.68 37.8C716.813 41.4 715.213 45 713.88 48.6L711.08 54.6V54.8C711.08 54.9333 711.08 55.0667 711.08 55.2C711.213 55.2 711.28 55.2667 711.28 55.4C714.08 55.4 717.146 55.2667 720.48 55C721.413 55 722.613 55.0667 724.08 55.2C725.68 55.2 727.28 55.2 728.88 55.2H737.48L738.48 54ZM82.2 239L80.4 249L70.4 248L62 250.8L41.2 249.4L35 251.2L18.8 249.8L13.8 250.8L11.4 246.2L10.6 235V197.8L14.4 178.6V159.6L17.4 155.2L30.8 154L32.6 156.4L34.2 176.2L39 188.4V231.8L40.4 236.2L45.6 235L55.2 236.2L61.6 234.4H77.8L82.2 239ZM183.508 236.4C183.641 237.2 183.774 237.933 183.908 238.6C184.041 239.133 184.174 239.6 184.308 240V241.4C184.308 241.533 184.041 241.933 183.508 242.6C183.108 243.133 182.641 243.933 182.108 245L173.508 245.6L155.308 249.2L147.508 251.6H107.708V239L106.508 236.2L108.308 228V195L107.308 192.2V155.8L110.108 152.6L111.308 153H129.108L131.908 155.2L152.108 152.4L168.108 150L176.108 152.6V162.4L172.508 164.4L129.708 167.6L128.308 168.8L131.308 189.2L133.108 194.6H138.308L154.308 192.8L158.308 193.2H171.508L172.708 199L170.308 202L162.508 203.4H156.308L134.308 207.8V214.6L136.708 235L138.708 235.2H179.708L183.508 236.4Z"
        fill="#10B981" />
</svg>