<svg width="195" height="98" viewBox="0 0 195 98" fill="none" xmlns="http://www.w3.org/2000/svg">
<path d="M89.1914 18.2L85.1914 27.4L82.1914 38.6L66.5914 70L64.1914 72.6L61.3914 81.4L58.9914 82.4H43.9914H34.1914L31.9914 80.8L31.3914 77.6L16.7914 55L13.5914 46.8L0.391407 17L0.991407 14.4L10.9914 13.2L12.9914 14.4L26.7914 35L28.9914 38.4L43.3914 56.6L46.1914 54.8L47.5914 52L49.7914 50.8L52.1914 43.8L56.1914 37.6L61.3914 33.4L72.7914 12.4H85.7914L89.1914 12.8V18.2ZM194.501 85L192.701 95L182.701 94L174.301 96.8L153.501 95.4L147.301 97.2L131.101 95.8L126.101 96.8L123.701 92.2L122.901 81V43.8L126.701 24.6V5.59999L129.701 1.2L143.101 -5.72205e-06L144.901 2.39999L146.501 22.2L151.301 34.4V77.8L152.701 82.2L157.901 81L167.501 82.2L173.901 80.4H190.101L194.501 85Z" fill="#10B981"/>
</svg>
